<svg width="33" height="17" viewBox="0 0 33 17" fill="none" xmlns="http://www.w3.org/2000/svg">
<path d="M13.3096 6.584H16.0636V7.772H13.3096V16.7H12.0136V0.0859989H13.3096V6.584ZM1.96964 12.758H3.48164C5.46164 12.758 8.01764 12.524 10.1236 12.218L10.2676 13.352C8.30564 13.694 5.65964 13.928 3.26564 13.928H0.673641V1.418H8.48564V2.606H1.96964V12.758ZM26.202 6.206H23.862C21 6.206 19.182 5.234 19.182 3.254C19.182 1.292 21 0.319999 23.862 0.319999H26.202C29.082 0.319999 30.9 1.292 30.9 3.254C30.9 5.234 29.082 6.206 26.202 6.206ZM24.096 5.108H25.986C28.326 5.108 29.604 4.424 29.604 3.272C29.604 2.066 28.326 1.436 25.986 1.436H24.096C21.738 1.436 20.46 2.066 20.46 3.272C20.46 4.46 21.738 5.108 24.096 5.108ZM32.808 9.086H17.256V7.952H32.808V9.086ZM30.828 16.7H19.272V11.048H30.828V16.7ZM20.55 12.164V15.584H29.532V12.164H20.55Z" fill="black"/>
</svg>
