<svg width="51" height="14" viewBox="0 0 51 14" fill="none" xmlns="http://www.w3.org/2000/svg">
<path opacity="0.6" d="M9.97722 4.798H6.02922C5.03522 6.142 3.36922 7.234 1.19922 8.06L0.779219 7.206C4.02722 5.96 6.08522 3.986 6.08522 1.928H0.989219V1.018H7.07922V1.704C7.07922 2.488 6.91122 3.216 6.58922 3.888H9.97722V0.177999H10.9712V9.992H9.97722V4.798ZM3.66322 8.97V12.176H11.5732V13.1H2.66922V8.97H3.66322ZM23.2386 4.42V0.177999H24.2326V13.1H23.2386V5.344H18.8286V4.42H23.2386ZM15.2166 10.034H16.3786C17.9466 10.034 20.0186 9.852 21.6986 9.586L21.8106 10.468C20.2566 10.748 18.1006 10.944 16.1966 10.944H14.2226V1.214H15.2166V10.034ZM36.598 13.1V0.192H37.592V13.1H36.598ZM30.676 5.442L30.774 6.31C29.934 6.436 29.108 6.492 28.31 6.492H27.442V1.088H30.55V1.956H28.422V5.596H28.618C29.15 5.596 29.948 5.554 30.676 5.442ZM32.23 5.624H34.428V6.52H31.264V1.088H34.428V1.956H32.23V5.624ZM35.366 7.92L35.478 8.816C34.26 8.984 32.79 9.11 31.404 9.18C31.334 10.454 31.194 11.798 31.012 13.212L30.018 13.1C30.2 11.728 30.326 10.468 30.41 9.222C29.92 9.236 29.458 9.25 29.024 9.25H26.756L26.7 8.326H29.094C30.704 8.326 33.322 8.172 35.366 7.92ZM49.7894 13.1V0.177999H50.7834V13.1H49.7894ZM45.8414 2.194H40.7454V1.284H46.8494V2.278C46.8494 5.932 44.6654 9.124 41.1374 11.462L40.5494 10.678C43.8254 8.55 45.8414 5.498 45.8414 2.474V2.194Z" fill="black"/>
</svg>
